<?xml version="1.0" encoding="UTF-8" standalone="no"?>
<!-- Created with Inkscape (http://www.inkscape.org/) -->

<svg
   width="200mm"
   height="200mm"
   viewBox="0 0 200 200"
   version="1.1"
   id="svg5"
   fill="currentColor"
   xml:space="preserve"
   inkscape:version="1.2.2 (732a01da63, 2022-12-09)"
   sodipodi:docname="icon.svg"
   xmlns:inkscape="http://www.inkscape.org/namespaces/inkscape"
   xmlns:sodipodi="http://sodipodi.sourceforge.net/DTD/sodipodi-0.dtd"
   xmlns="http://www.w3.org/2000/svg"
   xmlns:svg="http://www.w3.org/2000/svg"><sodipodi:namedview
     id="namedview7"
     pagecolor="#505050"
     bordercolor="#eeeeee"
     borderopacity="1"
     inkscape:showpageshadow="0"
     inkscape:pageopacity="0"
     inkscape:pagecheckerboard="0"
     inkscape:deskcolor="#505050"
     inkscape:document-units="mm"
     showgrid="false"
     inkscape:zoom="0.88907127"
     inkscape:cx="306.49961"
     inkscape:cy="562.947"
     inkscape:window-width="2560"
     inkscape:window-height="1351"
     inkscape:window-x="2551"
     inkscape:window-y="-9"
     inkscape:window-maximized="1"
     inkscape:current-layer="layer1" /><defs
     id="defs2" /><g
     inkscape:label="Layer 1"
     inkscape:groupmode="layer"
     id="layer1"
     style="fill-opacity:1"><g
       style="fill-opacity:1;fill:#22c55e"
       id="g149"
       transform="matrix(5.1367061,0,0,5.1367061,-18.78679,85.053255)"><path
         d="M 19.8497,4.70055 C 19.4524,3.57581 18.353,2.87898 17.1944,3.01758 16.9333,3.04881 16.6802,3.14255 16.4231,3.2575 16.1681,3.3715 15.8568,3.53109 15.4744,3.7272 L 12.999,4.99649 c -0.2844,0.14569 -0.5069,0.25965 -0.6976,0.40913 -0.4907,0.3848 -0.8261,0.9414 -0.9423,1.56362 -0.0451,0.24173 -0.045,0.49679 -0.0448,0.82287 v 0.07758 c 0,0.10469 0,0.20472 2e-4,0.30023 l -2e-4,6.12828 C 10.5374,13.5505 9.49228,13.0925 8.34284,13.0925 5.94436,13.0925 4,15.0866 4,17.5463 c 0,2.4598 1.94436,4.4538 4.34284,4.4538 2.39846,0 4.34286,-1.994 4.34286,-4.4538 v -6.363 c 0.4307,0.2256 0.9267,0.3251 1.4342,0.2644 0.2611,-0.0312 0.5142,-0.125 0.7713,-0.2399 0.255,-0.114 0.5662,-0.2736 0.9487,-0.4697 l 2.4753,-1.26928 c 0.2845,-0.1457 0.507,-0.25965 0.6976,-0.40914 0.4908,-0.3848 0.8262,-0.9414 0.9423,-1.56362 C 20.0002,7.25434 20.0001,6.99929 20,6.67322 V 6.59559 C 20,6.15712 20,5.80024 19.9854,5.51536 19.9706,5.2281 19.9392,4.95404 19.8497,4.70055 Z"
         fill="currentColor"
         id="path140"
         style="fill-opacity:1;fill:#22c55e" /></g><g
       style="fill-opacity:1;fill:#22c55e"
       id="g865"
       transform="matrix(5.1367061,0,0,5.1367061,59.77834,-13.450752)"
       fill="currentColor"><path
         d="M 19.8497,4.70055 C 19.4524,3.57581 18.353,2.87898 17.1944,3.01758 16.9333,3.04881 16.6802,3.14255 16.4231,3.2575 16.1681,3.3715 15.8568,3.53109 15.4744,3.7272 L 12.999,4.99649 c -0.2844,0.14569 -0.5069,0.25965 -0.6976,0.40913 -0.4907,0.3848 -0.8261,0.9414 -0.9423,1.56362 -0.0451,0.24173 -0.045,0.49679 -0.0448,0.82287 v 0.07758 c 0,0.10469 0,0.20472 2e-4,0.30023 l -2e-4,6.12828 C 10.5374,13.5505 9.49228,13.0925 8.34284,13.0925 5.94436,13.0925 4,15.0866 4,17.5463 c 0,2.4598 1.94436,4.4538 4.34284,4.4538 2.39846,0 4.34286,-1.994 4.34286,-4.4538 v -6.363 c 0.4307,0.2256 0.9267,0.3251 1.4342,0.2644 0.2611,-0.0312 0.5142,-0.125 0.7713,-0.2399 0.255,-0.114 0.5662,-0.2736 0.9487,-0.4697 l 2.4753,-1.26928 c 0.2845,-0.1457 0.507,-0.25965 0.6976,-0.40914 0.4908,-0.3848 0.8262,-0.9414 0.9423,-1.56362 C 20.0002,7.25434 20.0001,6.99929 20,6.67322 V 6.59559 C 20,6.15712 20,5.80024 19.9854,5.51536 19.9706,5.2281 19.9392,4.95404 19.8497,4.70055 Z"
         fill="currentColor"
         id="path863"
         style="fill-opacity:1;fill:#22c55e" /></g><g
       style="fill-opacity:1;fill:#22c55e"
       id="g869"
       transform="matrix(5.1367061,0,0,5.1367061,92.513815,51.127406)"
       inkscape:label="g869"><path
         d="M 19.8497,4.70055 C 19.4524,3.57581 18.353,2.87898 17.1944,3.01758 16.9333,3.04881 16.6802,3.14255 16.4231,3.2575 16.1681,3.3715 15.8568,3.53109 15.4744,3.7272 L 12.999,4.99649 c -0.2844,0.14569 -0.5069,0.25965 -0.6976,0.40913 -0.4907,0.3848 -0.8261,0.9414 -0.9423,1.56362 -0.0451,0.24173 -0.045,0.49679 -0.0448,0.82287 v 0.07758 c 0,0.10469 0,0.20472 2e-4,0.30023 l -2e-4,6.12828 C 10.5374,13.5505 9.49228,13.0925 8.34284,13.0925 5.94436,13.0925 4,15.0866 4,17.5463 c 0,2.4598 1.94436,4.4538 4.34284,4.4538 2.39846,0 4.34286,-1.994 4.34286,-4.4538 v -6.363 c 0.4307,0.2256 0.9267,0.3251 1.4342,0.2644 0.2611,-0.0312 0.5142,-0.125 0.7713,-0.2399 0.255,-0.114 0.5662,-0.2736 0.9487,-0.4697 l 2.4753,-1.26928 c 0.2845,-0.1457 0.507,-0.25965 0.6976,-0.40914 0.4908,-0.3848 0.8262,-0.9414 0.9423,-1.56362 C 20.0002,7.25434 20.0001,6.99929 20,6.67322 V 6.59559 C 20,6.15712 20,5.80024 19.9854,5.51536 19.9706,5.2281 19.9392,4.95404 19.8497,4.70055 Z"
         fill="currentColor"
         id="path867"
         style="fill-opacity:1;fill:#22c55e" /></g></g></svg>
