<svg xmlns="http://www.w3.org/2000/svg" xmlns:xlink="http://www.w3.org/1999/xlink" version="1.1" x="0px" y="0px" viewBox="0 0 33 41.25" enable-background="new 0 0 33 33" xml:space="preserve"><path fill="#22c55e" d="M26.051,22.361c-1.172,0-2.227,0.455-3.035,1.178l-11.57-6.32c0.037-0.236,0.07-0.473,0.07-0.719  c0-0.25-0.033-0.486-0.07-0.721l11.57-6.32c0.809,0.725,1.863,1.176,3.035,1.176c2.523,0,4.566-2.043,4.566-4.568  c0-2.523-2.043-4.566-4.566-4.566c-2.525,0-4.568,2.043-4.568,4.566c0,0.25,0.033,0.486,0.072,0.723L9.982,13.105  c-0.805-0.725-1.859-1.174-3.031-1.174c-2.525,0-4.57,2.043-4.57,4.568c0,2.523,2.045,4.566,4.57,4.566  c1.172,0,2.227-0.449,3.031-1.176l11.572,6.318c-0.039,0.24-0.072,0.475-0.072,0.723c0,2.521,2.043,4.568,4.568,4.568  c2.523,0,4.566-2.047,4.566-4.568C30.617,24.406,28.574,22.361,26.051,22.361z"/></svg>